<?xml version="1.0" encoding="UTF-8" standalone="no"?>
<!DOCTYPE svg PUBLIC "-//W3C//DTD SVG 1.1//EN" "http://www.w3.org/Graphics/SVG/1.1/DTD/svg11.dtd">
<svg width="100%" height="100%" viewBox="0 0 541 370" version="1.1" xmlns="http://www.w3.org/2000/svg" xmlns:xlink="http://www.w3.org/1999/xlink" xml:space="preserve" xmlns:serif="http://www.serif.com/" style="fill-rule:evenodd;clip-rule:evenodd;stroke-linejoin:round;stroke-miterlimit:2;">
    <path d="M459,95L541,95L541,177L532.214,177C491.779,177 459,144.221 459,103.786L459,95Z" style="fill:rgb(163,163,163);fill-opacity:0.2;"/>
    <path d="M451,95L369,95L369,177L377.786,177C418.221,177 451,144.221 451,103.786L451,95Z" style="fill:rgb(163,163,163);fill-opacity:0.2;"/>
    <path d="M357,177L276,177L276,95L284.679,95C324.621,95 357,127.779 357,168.214L357,177Z" style="fill:rgb(163,163,163);fill-opacity:0.2;"/>
    <path d="M184,177L266,177L266,95L257.214,95C216.779,95 184,127.779 184,168.214L184,177Z" style="fill:rgb(163,163,163);fill-opacity:0.2;"/>
    <path d="M184,0L266,0L266,82L257.214,82C216.779,82 184,49.221 184,8.786L184,0Z" style="fill:rgb(163,163,163);fill-opacity:0.2;"/>
    <path d="M356,82L274,82L274,0L282.786,0C323.221,0 356,32.779 356,73.214L356,82Z" style="fill:rgb(163,163,163);fill-opacity:0.2;"/>
    <path d="M449,82L368,82L368,0L376.679,0C416.621,0 449,32.779 449,73.214L449,82Z" style="fill:rgb(163,163,163);fill-opacity:0.2;"/>
    <path d="M459,79.804L459,82L461.05,82L461.05,80L461,80L461,79.804L459,79.804ZM469.25,82L465.15,82L465.15,80L469.25,80L469.25,82ZM459,75.411L461,75.411L461,73.214C461,72.544 461.009,71.876 461.028,71.211L459.028,71.155C459.01,71.839 459,72.526 459,73.214L459,75.411ZM459.255,67.055L461.248,67.221C461.36,65.887 461.508,64.564 461.691,63.252L459.71,62.974C459.522,64.323 459.37,65.684 459.255,67.055ZM460.394,58.926L462.356,59.314C462.615,58.003 462.91,56.704 463.241,55.42L461.304,54.922C460.964,56.243 460.66,57.577 460.394,58.926ZM462.439,50.974L464.345,51.581C464.75,50.308 465.19,49.051 465.664,47.81L463.796,47.096C463.309,48.372 462.856,49.665 462.439,50.974ZM465.369,43.302L467.194,44.12C467.74,42.903 468.319,41.703 468.93,40.523L467.154,39.603C466.526,40.817 465.93,42.05 465.369,43.302ZM469.144,36.011L470.865,37.028C471.544,35.881 472.254,34.753 472.994,33.648L471.332,32.535C470.571,33.672 469.841,34.83 469.144,36.011ZM473.711,29.188L475.308,30.391C476.111,29.327 476.942,28.286 477.802,27.269L476.274,25.978C475.391,27.023 474.536,28.093 473.711,29.188ZM479.012,22.916L480.465,24.291C481.381,23.323 482.323,22.381 483.291,21.465L481.916,20.012C480.921,20.953 479.953,21.922 479.012,22.916ZM484.978,17.274L486.269,18.802C487.286,17.942 488.327,17.111 489.391,16.308L488.188,14.711C487.093,15.536 486.023,16.391 484.978,17.274ZM491.535,12.332L492.648,13.994C493.753,13.254 494.88,12.544 496.028,11.865L495.011,10.144C493.83,10.841 492.672,11.571 491.535,12.332ZM498.603,8.154L499.523,9.93C500.703,9.319 501.902,8.74 503.12,8.194L502.302,6.369C501.05,6.93 499.817,7.526 498.603,8.154ZM506.096,4.796L506.81,6.664C508.051,6.19 509.308,5.75 510.581,5.345L509.974,3.439C508.665,3.856 507.372,4.309 506.096,4.796ZM513.922,2.304L514.42,4.241C515.704,3.91 517.003,3.615 518.314,3.356L517.926,1.394C516.577,1.66 515.243,1.964 513.922,2.304ZM521.974,0.71L522.252,2.691C523.564,2.508 524.887,2.36 526.221,2.249L526.055,0.255C524.684,0.37 523.323,0.522 521.974,0.71ZM473.35,82L473.35,80L477.45,80L477.45,82L473.35,82ZM481.55,82L481.55,80L485.65,80L485.65,82L481.55,82ZM489.75,82L489.75,80L493.85,80L493.85,82L489.75,82ZM497.95,82L497.95,80L502.05,80L502.05,82L497.95,82ZM506.15,82L506.15,80L510.25,80L510.25,82L506.15,82ZM514.35,82L514.35,80L518.45,80L518.45,82L514.35,82ZM522.55,82L522.55,80L526.65,80L526.65,82L522.55,82ZM530.75,82L530.75,80L534.85,80L534.85,82L530.75,82ZM538.95,82L538.95,80L539,80L539,79.95L541,79.95L541,82L538.95,82ZM541,75.85L539,75.85L539,71.75L541,71.75L541,75.85ZM541,67.65L539,67.65L539,63.55L541,63.55L541,67.65ZM541,59.45L539,59.45L539,55.35L541,55.35L541,59.45ZM541,51.25L539,51.25L539,47.15L541,47.15L541,51.25ZM541,43.05L539,43.05L539,38.95L541,38.95L541,43.05ZM541,34.85L539,34.85L539,30.75L541,30.75L541,34.85ZM541,26.65L539,26.65L539,22.55L541,22.55L541,26.65ZM541,18.45L539,18.45L539,14.35L541,14.35L541,18.45ZM541,10.25L539,10.25L539,6.15L541,6.15L541,10.25ZM541,2.05L539,2.05L539,2L538.804,2L538.804,0L541,0L541,2.05ZM534.411,0L534.411,2L532.214,2C531.544,2 530.876,2.009 530.211,2.028L530.155,0.028C530.839,0.01 531.526,0 532.214,0L534.411,0Z" style="fill:rgb(163,163,163);fill-opacity:0.3;"/>
    <path d="M275,290.196L275,288L277.05,288L277.05,290L277,290L277,290.196L275,290.196ZM285.25,288L281.15,288L281.15,290L285.25,290L285.25,288ZM275,294.589L277,294.589L277,296.786C277,297.456 277.009,298.124 277.028,298.789L275.028,298.845C275.01,298.161 275,297.474 275,296.786L275,294.589ZM275.255,302.945L277.248,302.779C277.36,304.113 277.508,305.436 277.691,306.748L275.71,307.026C275.522,305.677 275.37,304.316 275.255,302.945ZM276.394,311.074L278.356,310.686C278.615,311.997 278.91,313.296 279.241,314.58L277.304,315.078C276.964,313.757 276.66,312.423 276.394,311.074ZM278.439,319.026L280.345,318.419C280.75,319.692 281.19,320.949 281.664,322.19L279.796,322.904C279.309,321.628 278.856,320.335 278.439,319.026ZM281.369,326.698L283.194,325.88C283.74,327.098 284.319,328.297 284.93,329.477L283.154,330.397C282.526,329.183 281.93,327.95 281.369,326.698ZM285.144,333.989L286.865,332.972C287.544,334.12 288.254,335.247 288.994,336.352L287.332,337.465C286.571,336.328 285.841,335.17 285.144,333.989ZM289.711,340.812L291.308,339.609C292.111,340.673 292.942,341.714 293.802,342.731L292.274,344.022C291.391,342.977 290.536,341.907 289.711,340.812ZM295.012,347.084L296.465,345.709C297.381,346.677 298.323,347.619 299.291,348.535L297.916,349.988C296.921,349.047 295.953,348.079 295.012,347.084ZM300.978,352.726L302.269,351.198C303.286,352.058 304.327,352.889 305.391,353.692L304.188,355.289C303.093,354.464 302.023,353.609 300.978,352.726ZM307.535,357.668L308.648,356.006C309.753,356.746 310.88,357.456 312.028,358.135L311.011,359.856C309.83,359.159 308.672,358.429 307.535,357.668ZM314.603,361.846L315.523,360.07C316.703,360.681 317.902,361.26 319.12,361.806L318.302,363.631C317.05,363.07 315.817,362.474 314.603,361.846ZM322.096,365.204L322.81,363.336C324.051,363.81 325.308,364.25 326.581,364.655L325.974,366.561C324.665,366.144 323.372,365.691 322.096,365.204ZM329.922,367.696L330.42,365.759C331.704,366.09 333.003,366.385 334.314,366.644L333.926,368.606C332.577,368.34 331.243,368.036 329.922,367.696ZM337.974,369.29L338.252,367.309C339.564,367.492 340.887,367.64 342.221,367.751L342.055,369.745C340.684,369.63 339.323,369.478 337.974,369.29ZM289.35,288L289.35,290L293.45,290L293.45,288L289.35,288ZM297.55,288L297.55,290L301.65,290L301.65,288L297.55,288ZM305.75,288L305.75,290L309.85,290L309.85,288L305.75,288ZM313.95,288L313.95,290L318.05,290L318.05,288L313.95,288ZM322.15,288L322.15,290L326.25,290L326.25,288L322.15,288ZM330.35,288L330.35,290L334.45,290L334.45,288L330.35,288ZM338.55,288L338.55,290L342.65,290L342.65,288L338.55,288ZM346.75,288L346.75,290L350.85,290L350.85,288L346.75,288ZM354.95,288L354.95,290L355,290L355,290.05L357,290.05L357,288L354.95,288ZM357,294.15L355,294.15L355,298.25L357,298.25L357,294.15ZM357,302.35L355,302.35L355,306.45L357,306.45L357,302.35ZM357,310.55L355,310.55L355,314.65L357,314.65L357,310.55ZM357,318.75L355,318.75L355,322.85L357,322.85L357,318.75ZM357,326.95L355,326.95L355,331.05L357,331.05L357,326.95ZM357,335.15L355,335.15L355,339.25L357,339.25L357,335.15ZM357,343.35L355,343.35L355,347.45L357,347.45L357,343.35ZM357,351.55L355,351.55L355,355.65L357,355.65L357,351.55ZM357,359.75L355,359.75L355,363.85L357,363.85L357,359.75ZM357,367.95L355,367.95L355,368L354.804,368L354.804,370L357,370L357,367.95ZM350.411,370L350.411,368L348.214,368C347.544,368 346.876,367.991 346.211,367.972L346.155,369.972C346.839,369.99 347.526,370 348.214,370L350.411,370Z" style="fill:rgb(163,163,163);fill-opacity:0.3;"/>
    <path d="M267,288L185,288L185,370L193.786,370C234.221,370 267,337.221 267,296.786L267,288Z" style="fill:rgb(163,163,163);fill-opacity:0.2;"/>
    <path d="M173,370L92,370L92,288L100.679,288C140.621,288 173,320.779 173,361.214L173,370Z" style="fill:rgb(163,163,163);fill-opacity:0.2;"/>
    <path d="M0,370L82,370L82,288L73.214,288C32.779,288 0,320.779 0,361.214L0,370Z" style="fill:rgb(163,163,163);fill-opacity:0.2;"/>
    <path d="M0,195.196L0,193L2.05,193L2.05,195L2,195L2,195.196L0,195.196ZM10.25,193L6.15,193L6.15,195L10.25,195L10.25,193ZM0,199.589L2,199.589L2,201.786C2,202.456 2.009,203.124 2.028,203.789L0.028,203.845C0.01,203.161 0,202.474 0,201.786L0,199.589ZM0.255,207.945L2.249,207.779C2.36,209.113 2.508,210.436 2.691,211.748L0.71,212.026C0.522,210.677 0.37,209.316 0.255,207.945ZM1.394,216.074L3.356,215.686C3.615,216.997 3.91,218.296 4.241,219.58L2.304,220.078C1.964,218.757 1.66,217.423 1.394,216.074ZM3.439,224.026L5.345,223.419C5.75,224.692 6.19,225.949 6.664,227.19L4.796,227.904C4.309,226.628 3.856,225.335 3.439,224.026ZM6.369,231.698L8.194,230.88C8.74,232.098 9.319,233.297 9.93,234.477L8.154,235.397C7.526,234.183 6.93,232.95 6.369,231.698ZM10.144,238.989L11.865,237.972C12.544,239.12 13.254,240.247 13.994,241.352L12.332,242.465C11.571,241.328 10.841,240.17 10.144,238.989ZM14.711,245.812L16.308,244.609C17.111,245.673 17.942,246.714 18.802,247.731L17.274,249.022C16.391,247.977 15.536,246.907 14.711,245.812ZM20.012,252.084L21.465,250.709C22.381,251.677 23.323,252.619 24.291,253.535L22.916,254.988C21.922,254.047 20.953,253.079 20.012,252.084ZM25.978,257.726L27.269,256.198C28.286,257.058 29.327,257.889 30.391,258.692L29.188,260.289C28.093,259.464 27.023,258.609 25.978,257.726ZM32.535,262.668L33.648,261.006C34.753,261.746 35.881,262.456 37.028,263.135L36.011,264.856C34.831,264.159 33.672,263.429 32.535,262.668ZM39.603,266.846L40.523,265.07C41.703,265.681 42.903,266.26 44.12,266.806L43.302,268.631C42.05,268.07 40.817,267.474 39.603,266.846ZM47.096,270.204L47.81,268.336C49.051,268.81 50.308,269.25 51.581,269.655L50.974,271.561C49.665,271.144 48.372,270.691 47.096,270.204ZM54.922,272.696L55.42,270.759C56.704,271.09 58.003,271.385 59.314,271.644L58.926,273.606C57.577,273.34 56.243,273.036 54.922,272.696ZM62.974,274.29L63.252,272.309C64.564,272.492 65.887,272.64 67.221,272.751L67.055,274.745C65.684,274.63 64.323,274.478 62.974,274.29ZM14.35,193L14.35,195L18.45,195L18.45,193L14.35,193ZM22.55,193L22.55,195L26.65,195L26.65,193L22.55,193ZM30.75,193L30.75,195L34.85,195L34.85,193L30.75,193ZM38.95,193L38.95,195L43.05,195L43.05,193L38.95,193ZM47.15,193L47.15,195L51.25,195L51.25,193L47.15,193ZM55.35,193L55.35,195L59.45,195L59.45,193L55.35,193ZM63.55,193L63.55,195L67.65,195L67.65,193L63.55,193ZM71.75,193L71.75,195L75.85,195L75.85,193L71.75,193ZM79.95,193L79.95,195L80,195L80,195.05L82,195.05L82,193L79.95,193ZM82,199.15L80,199.15L80,203.25L82,203.25L82,199.15ZM82,207.35L80,207.35L80,211.45L82,211.45L82,207.35ZM82,215.55L80,215.55L80,219.65L82,219.65L82,215.55ZM82,223.75L80,223.75L80,227.85L82,227.85L82,223.75ZM82,231.95L80,231.95L80,236.05L82,236.05L82,231.95ZM82,240.15L80,240.15L80,244.25L82,244.25L82,240.15ZM82,248.35L80,248.35L80,252.45L82,252.45L82,248.35ZM82,256.55L80,256.55L80,260.65L82,260.65L82,256.55ZM82,264.75L80,264.75L80,268.85L82,268.85L82,264.75ZM82,272.95L80,272.95L80,273L79.804,273L79.804,275L82,275L82,272.95ZM75.411,275L75.411,273L73.214,273C72.544,273 71.876,272.991 71.211,272.972L71.155,274.972C71.839,274.99 72.526,275 73.214,275L75.411,275Z" style="fill:rgb(163,163,163);fill-opacity:0.3;"/>
    <path d="M172,275L90,275L90,193L98.786,193C139.221,193 172,225.779 172,266.214L172,275Z" style="fill:rgb(163,163,163);fill-opacity:0.2;"/>
    <path d="M539,367.804L539,370L536.95,370L536.95,368L537,368L537,367.804L539,367.804ZM528.75,370L532.85,370L532.85,368L528.75,368L528.75,370ZM539,363.411L537,363.411L537,361.214C537,360.544 536.991,359.876 536.972,359.211L538.972,359.155C538.99,359.839 539,360.526 539,361.214L539,363.411ZM538.745,355.055L536.752,355.221C536.64,353.887 536.492,352.564 536.309,351.252L538.29,350.974C538.478,352.323 538.63,353.684 538.745,355.055ZM537.606,346.926L535.644,347.314C535.385,346.003 535.09,344.704 534.759,343.42L536.696,342.922C537.036,344.243 537.34,345.577 537.606,346.926ZM535.561,338.974L533.655,339.581C533.25,338.308 532.81,337.051 532.336,335.81L534.204,335.096C534.691,336.372 535.144,337.665 535.561,338.974ZM532.631,331.302L530.806,332.12C530.26,330.902 529.681,329.703 529.07,328.523L530.846,327.603C531.474,328.817 532.07,330.05 532.631,331.302ZM528.856,324.011L527.135,325.028C526.456,323.88 525.746,322.753 525.006,321.648L526.668,320.535C527.429,321.672 528.159,322.83 528.856,324.011ZM524.289,317.188L522.692,318.391C521.889,317.327 521.058,316.286 520.198,315.269L521.726,313.978C522.609,315.023 523.464,316.093 524.289,317.188ZM518.988,310.916L517.535,312.291C516.619,311.323 515.677,310.381 514.709,309.465L516.084,308.012C517.079,308.953 518.047,309.921 518.988,310.916ZM513.022,305.274L511.731,306.802C510.714,305.942 509.673,305.111 508.609,304.308L509.812,302.711C510.907,303.536 511.977,304.391 513.022,305.274ZM506.465,300.332L505.352,301.994C504.247,301.254 503.12,300.544 501.972,299.865L502.989,298.144C504.17,298.841 505.328,299.571 506.465,300.332ZM499.397,296.154L498.477,297.93C497.297,297.319 496.098,296.74 494.88,296.194L495.698,294.369C496.95,294.93 498.183,295.526 499.397,296.154ZM491.904,292.796L491.19,294.664C489.949,294.19 488.692,293.75 487.419,293.345L488.026,291.439C489.335,291.856 490.628,292.309 491.904,292.796ZM484.078,290.304L483.58,292.241C482.296,291.91 480.997,291.615 479.686,291.356L480.074,289.394C481.423,289.66 482.757,289.964 484.078,290.304ZM476.026,288.71L475.748,290.691C474.436,290.507 473.113,290.36 471.779,290.248L471.945,288.255C473.316,288.37 474.677,288.522 476.026,288.71ZM524.65,370L524.65,368L520.55,368L520.55,370L524.65,370ZM516.45,370L516.45,368L512.35,368L512.35,370L516.45,370ZM508.25,370L508.25,368L504.15,368L504.15,370L508.25,370ZM500.05,370L500.05,368L495.95,368L495.95,370L500.05,370ZM491.85,370L491.85,368L487.75,368L487.75,370L491.85,370ZM483.65,370L483.65,368L479.55,368L479.55,370L483.65,370ZM475.45,370L475.45,368L471.35,368L471.35,370L475.45,370ZM467.25,370L467.25,368L463.15,368L463.15,370L467.25,370ZM459.05,370L459.05,368L459,368L459,367.95L457,367.95L457,370L459.05,370ZM457,363.85L459,363.85L459,359.75L457,359.75L457,363.85ZM457,355.65L459,355.65L459,351.55L457,351.55L457,355.65ZM457,347.45L459,347.45L459,343.35L457,343.35L457,347.45ZM457,339.25L459,339.25L459,335.15L457,335.15L457,339.25ZM457,331.05L459,331.05L459,326.95L457,326.95L457,331.05ZM457,322.85L459,322.85L459,318.75L457,318.75L457,322.85ZM457,314.65L459,314.65L459,310.55L457,310.55L457,314.65ZM457,306.45L459,306.45L459,302.35L457,302.35L457,306.45ZM457,298.25L459,298.25L459,294.15L457,294.15L457,298.25ZM457,290.05L459,290.05L459,290L459.196,290L459.196,288L457,288L457,290.05ZM463.589,288L463.589,290L465.786,290C466.456,290 467.124,290.009 467.789,290.028L467.845,288.028C467.161,288.01 466.474,288 465.786,288L463.589,288Z" style="fill:rgb(163,163,163);fill-opacity:0.3;"/>
    <path d="M366,370L447,370L447,288L438.321,288C398.379,288 366,320.779 366,361.214L366,370Z" style="fill:rgb(163,163,163);fill-opacity:0.2;"/>
    <path d="M366,193L447,193L447,275L438.321,275C398.379,275 366,242.221 366,201.786L366,193Z" style="fill:rgb(163,163,163);fill-opacity:0.2;"/>
    <path d="M537,275L456,275L456,193L464.679,193C504.621,193 537,225.779 537,266.214L537,275Z" style="fill:rgb(163,163,163);fill-opacity:0.2;"/>
    <path d="M265,272.804L265,275L262.975,275L262.975,273L263,273L263,272.804L265,272.804ZM254.875,275L258.925,275L258.925,273L254.875,273L254.875,275ZM265,268.411L263,268.411L263,266.214C263,265.548 262.991,264.884 262.973,264.222L264.972,264.168C264.991,264.848 265,265.53 265,266.214L265,268.411ZM264.751,260.092L262.757,260.255C262.649,258.929 262.505,257.612 262.325,256.308L264.307,256.035C264.491,257.376 264.639,258.729 264.751,260.092ZM263.64,252.009L261.676,252.39C261.423,251.086 261.134,249.794 260.812,248.516L262.751,248.026C263.083,249.34 263.379,250.668 263.64,252.009ZM261.641,244.097L259.733,244.694C259.336,243.426 258.906,242.174 258.442,240.938L260.315,240.235C260.791,241.506 261.234,242.794 261.641,244.097ZM258.776,236.454L256.945,237.26C256.411,236.045 255.844,234.849 255.245,233.671L257.028,232.765C257.643,233.976 258.226,235.206 258.776,236.454ZM255.078,229.179L253.348,230.183C252.683,229.036 251.987,227.91 251.261,226.806L252.932,225.707C253.678,226.843 254.394,228 255.078,229.179ZM250.596,222.36L248.988,223.55C248.2,222.484 247.383,221.442 246.538,220.424L248.077,219.147C248.945,220.193 249.786,221.265 250.596,222.36ZM245.384,216.079L243.918,217.44C243.017,216.47 242.089,215.525 241.136,214.607L242.524,213.166C243.504,214.11 244.457,215.082 245.384,216.079ZM239.506,210.418L238.201,211.933C237.198,211.07 236.171,210.234 235.121,209.428L236.339,207.842C237.419,208.671 238.475,209.53 239.506,210.418ZM233.032,205.448L231.905,207.1C230.813,206.355 229.699,205.641 228.564,204.958L229.596,203.244C230.763,203.947 231.909,204.682 233.032,205.448ZM226.041,201.239L225.108,203.008C223.94,202.392 222.752,201.808 221.547,201.258L222.378,199.438C223.618,200.004 224.839,200.605 226.041,201.239ZM218.617,197.85L217.892,199.714C216.662,199.235 215.416,198.791 214.154,198.381L214.771,196.479C216.07,196.9 217.352,197.358 218.617,197.85ZM210.853,195.331L210.346,197.266C209.071,196.932 207.783,196.633 206.482,196.371L206.877,194.41C208.216,194.68 209.541,194.988 210.853,195.331ZM202.855,193.719L202.573,195.699C201.27,195.513 199.956,195.364 198.631,195.251L198.8,193.259C200.163,193.374 201.515,193.528 202.855,193.719ZM250.825,275L250.825,273L246.775,273L246.775,275L250.825,275ZM242.725,275L242.725,273L238.675,273L238.675,275L242.725,275ZM234.625,275L234.625,273L230.575,273L230.575,275L234.625,275ZM226.525,275L226.525,273L222.475,273L222.475,275L226.525,275ZM218.425,275L218.425,273L214.375,273L214.375,275L218.425,275ZM210.325,275L210.325,273L206.275,273L206.275,275L210.325,275ZM202.225,275L202.225,273L198.175,273L198.175,275L202.225,275ZM194.125,275L194.125,273L190.075,273L190.075,275L194.125,275ZM186.025,275L186.025,273L186,273L186,272.95L184,272.95L184,275L186.025,275ZM184,268.85L186,268.85L186,264.75L184,264.75L184,268.85ZM184,260.65L186,260.65L186,256.55L184,256.55L184,260.65ZM184,252.45L186,252.45L186,248.35L184,248.35L184,252.45ZM184,244.25L186,244.25L186,240.15L184,240.15L184,244.25ZM184,236.05L186,236.05L186,231.95L184,231.95L184,236.05ZM184,227.85L186,227.85L186,223.75L184,223.75L184,227.85ZM184,219.65L186,219.65L186,215.55L184,215.55L184,219.65ZM184,211.45L186,211.45L186,207.35L184,207.35L184,211.45ZM184,203.25L186,203.25L186,199.15L184,199.15L184,203.25ZM184,195.05L186,195.05L186,195L186.17,195L186.17,193L184,193L184,195.05ZM190.509,193L190.509,195L192.679,195C193.344,195 194.008,195.009 194.669,195.028L194.725,193.029C194.045,193.01 193.363,193 192.679,193L190.509,193Z" style="fill:rgb(163,163,163);fill-opacity:0.3;"/>
    <path d="M275,275L357,275L357,193L348.214,193C307.779,193 275,225.779 275,266.214L275,275Z" style="fill:rgb(163,163,163);fill-opacity:0.2;"/>
    <g transform="matrix(1,0,0,1,98.3705,59.0223)">
        <g transform="matrix(87,0,0,87,391.224,206.895)">
        </g>
        <text x="87.404px" y="206.895px" style="font-family:'Tahoma', sans-serif;font-size:87px;">r<tspan x="118.33px 164.124px " y="206.895px 206.895px ">e:</tspan>math</text>
    </g>
</svg>
