<?xml version="1.0" encoding="UTF-8" standalone="no"?>
<svg
   xmlns:dc="http://purl.org/dc/elements/1.1/"
   xmlns:cc="http://creativecommons.org/ns#"
   xmlns:rdf="http://www.w3.org/1999/02/22-rdf-syntax-ns#"
   xmlns:svg="http://www.w3.org/2000/svg"
   xmlns="http://www.w3.org/2000/svg"
   version="1.1"
   id="svg139"
   width="766"
   height="253"
   viewBox="0 0 766 253">
  <metadata
     id="metadata145">
    <rdf:RDF>
      <cc:Work
         rdf:about="">
        <dc:format>image/svg+xml</dc:format>
        <dc:type
           rdf:resource="http://purl.org/dc/dcmitype/StillImage" />
        <dc:title></dc:title>
      </cc:Work>
    </rdf:RDF>
  </metadata>
  <defs
     id="defs143" />
  <g
     id="g147">
    <path
       style="fill:#ffffff"
       d="m 115.77861,197.64582 c -11.28795,-3.77409 -19.289651,-11.76907 -23.853096,-23.83308 -1.924662,-5.08807 -2.144126,-7.66257 -2.145442,-25.16785 -0.0013,-17.84112 0.197292,-20.07547 2.334902,-26.26453 5.8836,-17.03492 18.148476,-25.875104 36.163636,-26.065757 26.78136,-0.283424 38.90422,15.602567 38.98019,51.080287 l 0.0198,9.25 h -26.12882 -26.12883 l 0.69055,5.25 c 1.63135,12.40259 10.35174,18.25624 23.48616,15.76535 5.7343,-1.08748 8.04311,-2.11783 12.93937,-5.77442 1.95674,-1.46131 3.62619,-2.09821 4,-1.52601 0.35287,0.54015 2.56478,3.91057 4.91537,7.48981 2.6635,4.05574 4.03745,7.12359 3.64655,8.14226 -0.85407,2.22568 -9.1528,8.19915 -15.07114,10.84829 -7.13173,3.19228 -25.40984,3.62731 -33.8492,0.80565 z m 25.49442,-63.25093 c -0.009,-6.59099 -1.75789,-11.37319 -5.22824,-14.2933 -2.7571,-2.31994 -3.83203,-2.60874 -8.16136,-2.19275 -6.30993,0.6063 -9.90861,4.26248 -11.50024,11.684 -2.07123,9.65783 -2.86729,9.05205 11.89542,9.05205 h 13 l -0.006,-4.25 z m 49.72414,62.47339 c -4.11236,-2.54803 -7.05678,-9.26203 -6.22387,-14.19195 1.26498,-7.48736 6.93225,-12.03144 15.00531,-12.03144 8.07306,0 13.74033,4.54408 15.00531,12.03144 0.84796,5.019 -2.17134,11.74935 -6.38836,14.2404 -3.91153,2.3106 -13.63474,2.28352 -17.39839,-0.0485 z m 50.16379,-2.10574 c -2.58425,-2.58426 -3.91778,-4.84118 -3.98831,-6.75 -0.43294,-11.71656 4.3895,-17.37202 14.8063,-17.36391 14.56602,0.0113 20.4003,16.00224 9.25885,25.37714 -2.66362,2.2413 -4.05621,2.61912 -9.65356,2.61912 -6.26471,0 -6.70487,-0.16395 -10.42328,-3.88235 z M 30.278607,147.64489 V 97.644888 h 11.893011 c 13.158797,0 13.061027,-0.05076 13.159441,6.831792 l 0.05245,3.66821 1.68486,-2.5 C 61.91233,98.45741 68.925316,94.925181 75.793423,96.213645 l 3.485184,0.653825 v 12.78283 12.78282 l -8.087266,0.36726 c -7.870648,0.35743 -8.178676,0.46701 -11.5,4.0912 l -3.412734,3.72394 v 33.51468 33.51469 h -13 -13 z m 258.000003,38.52305 c 0,-13.64125 -0.55741,-12.97773 14.2494,-16.96198 5.36218,-1.44286 10.42468,-2.88251 11.25,-3.19922 1.29586,-0.49726 1.5006,1.62184 1.5006,15.53116 v 16.10699 h -13.5 -13.5 z m 51,11.14329 c 0,-0.18351 -2.26341,-8.13511 -5.02979,-17.67021 -3.14661,-10.84565 -4.67712,-17.68922 -4.08783,-18.27851 0.84017,-0.84017 38.10183,-2.89482 38.97008,-2.14886 0.19385,0.16655 -1.68054,7.26574 -4.16532,15.77597 -4.1156,14.09571 -4.85915,15.79042 -8.35246,19.03715 -3.59998,3.34587 -4.24782,3.56566 -10.58468,3.59106 -3.7125,0.0149 -6.75,-0.12309 -6.75,-0.3066 z m 43,-9.12549 v -9.45915 l 6.75,-3.16317 c 6.83143,-3.20133 20.22133,-8.91853 20.88754,-8.91853 0.19935,0 0.36246,6.975 0.36246,15.5 v 15.5 h -14 -14 z m 43.37631,7.70915 c 1.92319,-6.58523 12.00872,-38.8205 12.23839,-39.11623 0.7963,-1.02533 29.3853,-10.76981 29.3853,-10.0159 0,0.48517 5.67314,0.88213 12.60699,0.88213 10.51692,0 12.51608,-0.23691 12.05863,-1.42899 -0.30159,-0.78594 -0.8352,-2.958 -1.18578,-4.82681 l -0.63744,-3.39782 11.09269,-4.55523 c 6.10098,-2.50537 11.26398,-4.27081 11.47333,-3.92319 0.20935,0.34762 1.77738,5.11183 3.4845,10.58712 l 3.10385,9.95508 -5.24838,4.47478 c -2.88662,2.46112 -7.72921,7.08327 -10.76132,10.27144 l -5.51293,5.79667 -18.48707,0.27347 -18.48707,0.27348 -3.44518,13.25 -3.44517,13.25 h -14.37221 c -13.21586,0 -14.33109,-0.1408 -13.86113,-1.75 z m 78.70438,-1.91993 c -3.66094,-13.25885 -3.65639,-13.62075 0.25248,-20.05544 3.95714,-6.51415 15.09515,-19.12213 16.06611,-18.18648 0.33569,0.32348 3.29822,9.14822 6.5834,19.61053 3.28518,10.46231 6.25616,19.76015 6.60218,20.66185 0.56525,1.47303 -0.84902,1.63947 -13.93087,1.63947 h -14.55998 z m 58.91931,-8.25424 v -11.92417 l 10.47662,-4.09615 c 5.76214,-2.25289 11.83714,-4.36826 13.5,-4.70083 l 3.02338,-0.60468 v 16.625 16.625 h -13.5 -13.5 z m 76,-7.14322 c 0,-17.68045 0.12729,-19.03154 1.75,-18.57465 0.9625,0.271 3.325,0.78025 5.25,1.13167 1.925,0.35141 7.2125,1.78794 11.75,3.19227 l 8.25,2.55333 v 15.38239 15.38238 h -13.5 -13.5 z m 68,10.12242 v -8.94497 l 5.61369,2.48264 c 3.08753,1.36545 8.15003,4.55039 11.25,7.07764 3.09997,2.52724 6.64881,5.05753 7.88631,5.62284 4.55154,2.07924 1.94321,2.70682 -11.25,2.70682 h -13.5 z m 21,-12.65174 c -2.475,-1.29722 -8.1,-4.05614 -12.5,-6.13093 l -8,-3.77236 -0.27988,-12.75 -0.27987,-12.75 h -20.47013 -20.47012 v 7.10699 c 0,6.36628 -0.18239,7.03466 -1.75,6.41297 -0.9625,-0.3817 -7.0515,-1.44235 -13.5311,-2.35698 l -11.7811,-1.66298 0.2811,-9.89559 0.2811,-9.8956 9,-1.80498 c 6.07026,-1.21742 11.93632,-3.28595 18.02022,-6.35441 l 9.02022,-4.54942 h 15.69357 15.69357 l 0.28621,-9.62323 0.28621,-9.623229 8.787,-5.626772 c 4.83285,-3.094724 10.79535,-7.117232 13.25,-8.938907 l 4.463,-3.312135 v 49.062133 c 0,26.98418 -0.3375,49.00856 -0.75,48.94307 -0.4125,-0.0655 -2.775,-1.18042 -5.25,-2.47764 z m -346,-7.19496 c 0,-11.21518 0.52814,-12.58355 5.84431,-15.1422 2.56063,-1.23241 8.34632,-4.45146 12.85709,-7.15344 4.51077,-2.70198 8.44827,-4.91269 8.75,-4.91269 0.30173,0 0.53173,4.6125 0.51111,10.25 l -0.0375,10.25 -13.21251,6.45677 c -7.26688,3.55122 -13.55001,6.62622 -13.96251,6.83333 -0.4125,0.20711 -0.75,-2.75468 -0.75,-6.58177 z m -94,-21.1929 V 124.691 l 2.45887,-1.61112 c 2.33988,-1.53315 19.98382,-8.43499 21.56329,-8.43499 0.4125,0 1.03745,7.3125 1.38878,16.25 0.35132,8.9375 0.88861,19.19141 1.19396,22.78647 l 0.5552,6.53648 -7.33005,1.89619 c -4.03153,1.0429 -10.14255,3.38556 -13.58005,5.2059 l -6.25,3.30972 z m 275,6.07247 v -15.9121 l 3.75,-0.53831 c 2.0625,-0.29606 6.9,-0.80455 10.75,-1.12997 3.85,-0.32542 8.25166,-0.83661 9.78147,-1.13597 l 2.78147,-0.54429 -0.28147,12.18206 -0.28147,12.18206 -8,3.24039 c -4.4,1.78222 -9.89457,4.21416 -12.21016,5.40431 -2.31559,1.19016 -4.67809,2.16392 -5.25,2.16392 -0.67622,0 -1.03984,-5.56429 -1.03984,-15.9121 z M 321.84223,136.80987 c -3.12594,-10.81574 -5.88134,-20.3563 -6.12312,-21.20124 -0.32751,-1.14455 2.007,-2.50128 9.1557,-5.32092 5.27741,-2.08156 9.70855,-3.64024 9.84697,-3.46374 0.29172,0.37199 11.55683,43.41669 11.55683,44.15939 0,0.27269 -2.1375,0.97334 -4.75,1.55699 -2.6125,0.58365 -6.8319,1.70768 -9.37644,2.49784 l -4.62643,1.43666 z m 29.93244,12.84743 c 1.00215,-3.1575 19.37958,-73.254041 21.17374,-80.762412 0.8214,-3.4375 1.85392,-6.25 2.29448,-6.25 0.44056,0 1.99033,2.430866 3.44393,5.401924 3.82932,7.826841 21.01898,24.18509 27.13254,25.820217 l 4.45925,1.192669 v 20.235482 20.23548 l -7.08498,5.54361 c -6.35841,4.97512 -14.20217,8.57062 -18.69721,8.57062 -1.4441,0 -1.34307,-8.53419 0.40249,-34 0.32045,-4.675 0.35383,-8.275 0.0742,-8 -0.27965,0.275 -3.28206,9.94425 -6.67202,21.48722 -3.38996,11.54297 -6.24431,21.05526 -6.34301,21.13843 -0.0987,0.0832 -4.83874,0.4783 -10.53344,0.87809 l -10.35398,0.72688 0.70403,-2.21821 z m 90.07262,-5.81534 c 1.30578,-4.23339 4.97452,-15.93134 8.15274,-25.99545 l 5.77858,-18.298384 8,-3.248307 c 4.4,-1.786569 13.62323,-6.45407 20.49606,-10.372224 6.87284,-3.918154 12.56119,-7.047145 12.64078,-6.953312 0.24219,0.285509 14.36316,45.490937 14.36316,45.980737 0,0.25114 -0.7875,0.68696 -1.75,0.96849 -0.9625,0.28154 -6.08654,2.10749 -11.38675,4.05768 l -9.63676,3.54579 -4.28819,-16.50412 c -2.37124,-9.12627 -4.60271,-15.91714 -4.99175,-15.19105 -0.38695,0.7222 -2.89214,9.72649 -5.56709,20.00954 l -4.86355,18.69647 -9.50795,3.43951 c -5.22938,1.89173 -11.82669,4.367 -14.6607,5.5006 l -5.15275,2.06111 z M 563.27861,113.57575 V 96.28403 l 10.92507,-10.333615 c 6.00879,-5.683488 13.24754,-13.252295 16.08611,-16.819571 l 5.16103,-6.485956 h 13.91389 13.9139 v 11.5 11.5 h -16.5 -16.5 v 21.000002 c 0,19.33044 -0.13913,21.0006 -1.75,21.00759 -2.52459,0.011 -17.67701,1.79429 -21.7707,2.56227 l -3.4793,0.65272 z m -367.72495,9.0956 c -5.16748,-1.22357 -7.9574,-3.62785 -9.79586,-8.44179 -3.89262,-10.19268 2.83118,-19.584672 14.02081,-19.584672 8.74638,0 14.68041,5.639912 14.80764,14.073702 0.14728,9.76242 -8.85568,16.36247 -19.03259,13.95276 z m 52.22495,0.0405 c -7.15064,-1.72355 -10.91701,-6.7439 -10.80154,-14.39785 0.1217,-8.06741 6.1855,-13.666014 14.80154,-13.666014 11.57738,0 18.41359,10.346764 13.51798,20.459754 -3.07414,6.35032 -10.08819,9.39494 -17.51798,7.60411 z m 391.73543,-29.377468 0.26457,-30.189494 13.21947,-0.278813 13.21948,-0.278812 0.28052,28.029438 c 0.15429,15.416189 0.12622,28.029159 -0.0624,28.028819 -0.1886,-3.5e-4 -4.6886,0.85337 -10,1.89715 -5.31139,1.04377 -11.35114,2.14155 -13.42165,2.43949 l -3.76458,0.54172 0.26458,-30.189498 z M 288.27861,91.626889 V 62.644888 h 17.42904 17.42904 l 1.49265,5.25 c 5.02559,17.676273 8.80114,33.990822 8.03275,34.710412 -1.45314,1.36086 -18.36265,6.1705 -19.41259,5.5216 -0.53399,-0.33003 -0.97089,-0.15381 -0.97089,0.39159 0,0.54539 -1.0125,1.29209 -2.25,1.65934 -1.2375,0.36724 -6.6375,2.86446 -12,5.54938 l -9.75,4.88168 z m 419,-13.011026 V 62.586838 l 13.25,0.279025 13.25,0.279025 0.2982,5.132886 0.2982,5.132885 -8.36785,7.444988 c -7.76413,6.907856 -16.82606,13.789241 -18.15873,13.789241 -0.3134,0 -0.56982,-7.213061 -0.56982,-16.029025 z M 458.28847,91.394888 c 0.005,-0.1375 1.98122,-6.55 4.39066,-14.25 l 4.38081,-14 h 12.34736 12.34736 l 1.94856,5.420595 1.94857,5.420595 -4.43659,3.939527 c -5.34199,4.743487 -13.03786,8.749722 -22.29193,11.604492 -5.96703,1.84076 -10.66635,2.664775 -10.6348,1.864791 z m 104.99014,-3.627555 c 0,-2.077505 -0.34937,-2.122445 -16.5,-2.122445 h -16.5 v -11.5 -11.5 h 28.08651 28.08651 l -3.12462,4.25 c -3.72716,5.069547 -16.54269,20.085405 -18.59809,21.791237 -1.1896,0.987286 -1.45031,0.822126 -1.45031,-0.918792 z M 400.95202,72.759725 c -4.22037,-4.33684 -7.67341,-8.405039 -7.67341,-9.040442 0,-0.80382 2.50982,-1.066921 8.25,-0.864837 l 8.25,0.290442 0.28893,8.75 c 0.15892,4.8125 -0.10055,8.75 -0.57658,8.75 -0.47604,0 -4.31856,-3.548323 -8.53894,-7.885163 z"
       id="path151" />
  </g>
</svg>
